<svg id="Layer_1" data-name="Layer 1" xmlns="http://www.w3.org/2000/svg" viewBox="0 0 200 600"><defs><style>.cls-1{fill:none;stroke:#fff;stroke-miterlimit:22.93;stroke-width:0.51px;}.cls-2{fill:#fcd0c2;fill-rule:evenodd;}</style></defs><title>female back</title><path class="cls-1" d="M59.49,174.83c-2.08,11.53.43,19,3,28.82a65.16,65.16,0,0,1,2.1,15.5"/><path class="cls-1" d="M152.92,174.83c2.09,11.53-.43,19-3,28.82A63,63,0,0,0,147.69,219"/><path class="cls-2" d="M108.12,39.26c31.11,4.64,8.75,56.09,25.37,61.51-6.26-.76-8.54-5.5-9.4-9.8-.92,4.8,1.44,8.59,4.16,11.93-2-1-4-3.14-5.56-5.38.58,7,4.37,9,6.18,10-7.94-.5-10.73-6.34-12.33-10.94.12,2.2,0,10.75,3,13.14-4.26-1.24-6.92-9.84-7-10-1,18.93,4.25,29,28.87,36.34,11.75,0,15.49,5.43,16.19,21.53,1,23.07-.66,45.88.7,68.88.44,7.47,5,17.19,5.89,26.24,1.62,16.14-.8,31.77.74,47.42.61,1.35,2,2.35,2.07,3.17.09,1-1.53,2.32-1.6,3.35,1.55,7.68,4.05,17.12,5.6,24.8-1.94,4.89-2.1,6.23-4,11.12-4,3.26-8.34,6.9-12.37,10.16-1.6-1.5,2-6.12,4.86-10.26a22.74,22.74,0,0,0,.5-7.68c-.29-2.24-1.51-5.85-2-9-1,3.26-1.23,4.76-2.24,8,.74,3,3.12,8.39.26,9.76-1.47-3.52-3.73-7.75-4.21-11.91.6-4.34.71-6.5,1.25-11.18a36.77,36.77,0,0,0,2.62-15.87c-1.51-14.68-10.22-45.17-15.33-67.75-.15-15.44-.9-31.78-1.05-47.22.33-7.07,2.38-14.49,4.19-20.27-4.34,12.78-11,59.33-10.93,68.42,0,10.3,18,35.82,17.45,70.4-.08,5.09-3.85,21.94-7.51,39.55-4.29,20.59-10.65,42.1-10.64,47.14,0,10.44,5.09,22.33,4.54,40.9-.42,14-21.28,74.62-21.75,95.81.19,1.55,2.51,2.86,2.5,4.18s-1.83,2.59-1.57,3.26c2,6.83,6,9.24,11.11,13.4.63.51,1.72,1,2.33,1.47,1.39,1,2.15,3,1.27,4-.62.77-1.79,1.13-2.43-.58.26.68,1.18,2-1.53,2.6-2.43.59-2.49-.26-3-1.32.35,1,1.16,1.9-2.26,2.3-2.91.34-2.87-.12-3.13-1,.2.93-.32,1.42-3.27,1.57-3.22.16-2.35-1.27-2.9-3.06.25,2.48-.08,3.09-4.12,3.2-3,.08-6.12-1-5.13-7-.35-8.29-.69-4.36-1-12.65-.15-2.58-.41-4.37-.73-7.32.08-1.73.53-5.88.76-8.23.73-7.49.81-23.87,1.39-31.49.46-17.79-1.11-36.28-1.06-45.55.12-8.49,3-28.3,3-33.87.08-6.79-2.52-13.22-2.56-19.31-.13-8.84-.89-35.25-.66-60.4a226.93,226.93,0,0,1,1.14-24.53,11.66,11.66,0,0,1-3.06.39,11,11,0,0,1-3.08-.39A202.83,202.83,0,0,1,98,336c.23,25.16-.82,51.36-1,60.2,0,6.09-2.64,12.52-2.56,19.31,0,5.57,2.86,25.38,3,33.87.05,9.27-1.52,27.76-1.06,45.55.58,7.62.66,24.07,1.39,31.56.23,2.35.68,6.5.76,8.23-.32,3-.58,4.74-.73,7.32-.35,8.29-.69,4.29-1,12.58,1,6-2.18,7.06-5.13,7-4-.11-4.37-.72-4.12-3.2-.55,1.79.91,3.13-2.31,3-3-.15-3.48-.64-3.28-1.56-.25.86-.21,1.31-3.13,1-3.42-.4-2.61-1.33-2.25-2.29-.47,1.05-.53,1.9-3,1.32-2.7-.65-1.79-1.92-1.53-2.6-.63,1.71-1.81,1.34-2.43.58-.87-1.08-.11-3,1.28-4.06.61-.46,1.7-1,2.32-1.47,5.1-4.16,8.26-6.7,10.53-13.24.26-.67-1.51-2-1.57-3.26s2.31-2.63,2.5-4.18C84.25,510.42,63.39,449.7,63,435.73c-.55-18.57,4.53-30.46,4.54-40.9,0-5-6.35-26.55-10.64-47.14-3.66-17.61-6.73-34.46-6.81-39.55-.55-34.58,16.75-60.1,16.75-70.4.08-9.09-6.42-54.48-10.94-68.42a197.75,197.75,0,0,1,4.45,19.52c-.16,15.43-.47,32.53-.62,48-5.11,22.58-12.08,46.33-15.33,67.75A36.77,36.77,0,0,0,47,320.43c.54,4.68.88,7.74,1.48,12.08-.48,4.16-2.74,8.39-4.21,11.91-2.85-1.37-.47-6.74.26-9.76-1-3.26-1.46-5.66-2.47-8.92-.53,3.18-1.75,5.25-2,7.49a39.51,39.51,0,0,0,.73,10.12c2.87,4.14,6.46,8.76,4.86,10.26-4-3.26-8.33-6.9-12.36-10.16-1.94-4.89-2.34-7.13-4.28-12,1.55-7.68,4-17.12,5.6-24.8-.07-1-1.58-2.29-1.48-3.26s1.46-1.68,2-3.26c1.54-15.65-.88-31.28.74-47.42.91-9.05,5.45-18.77,5.89-26.24,1.36-23-.67-45.23.18-69,.58-16.1,5-21.4,16.71-21.41,24.62-7.37,30.58-18.11,29-36.33a33.56,33.56,0,0,1-6.06,9.58,64.07,64.07,0,0,0,1.69-9.13c.11-1.86-1.16,6.8-12.1,11,4.48-2.93,5.11-5.51,6.47-8.12a26.11,26.11,0,0,1-9.34,4.21c2.1-.87,8.38-3.55,7.16-14.61.14,2.43-2.85,8.12-10.2,10.71,9.62-3.65,8.29-23.9,8.35-29.43.16-16.3,1.48-40.5,34.63-34.63Z"/></svg>