<svg id="Layer_1" data-name="Layer 1" xmlns="http://www.w3.org/2000/svg" viewBox="0 0 200 600"><defs><style>.cls-1{fill:none;stroke:#fff;stroke-miterlimit:22.93;stroke-width:0.51px;}.cls-2{fill:#fcd0c2;fill-rule:evenodd;}</style></defs><title>female front</title><path class="cls-1" d="M59.49,174.83c-2.08,11.53.43,19,3,28.82a65.16,65.16,0,0,1,2.1,15.5"/><path class="cls-1" d="M152.92,174.83c2.09,11.53-.43,19-3,28.82A63,63,0,0,0,147.69,219"/><path class="cls-2" d="M112.17,99.43c1.4,3.29,4.11,6.52,7,9.78a35.84,35.84,0,0,1-1.69-9.12c1.16,2,2.57,7.13,11.79,9.76a15.79,15.79,0,0,1-6.72-8.22,26.35,26.35,0,0,0,9.2,4.12c-2.1-.88-7.68-2.16-6.46-13.22-.14,2.44,4.13,10.45,11.48,13-9.62-3.66-9.57-26.23-9.63-31.76-.16-16.3-1.48-40.5-34.63-34.62-31.11,4.64-8.75,56.08-25.37,61.5,6.26-.76,8.54-5.5,9.4-9.79.92,4.79-1.44,8.59-4.16,11.93,2.08-1.09,4-3.24,5.71-6.13,0,2.12-1.28,8-6.33,10.77,3.65-.17,10.06-1.84,12.44-12.1.09,5.09-.81,13.07-3.17,14.3,4-2.17,6.69-9.66,6.79-10.24,2.84,32.57-19.34,28.42-38.62,38.64-4.82,2.56-6.68,8.74-7.06,19.31-.85,23.77,1.18,46-.18,69-.44,7.46-5,17.18-5.89,26.23-1.62,16.14.8,31.77-.74,47.43-.5,1.58-1.86,2.43-2,3.25s1.41,2.23,1.48,3.26c-1.55,7.68-4,17.12-5.6,24.8,1.94,4.89,2.34,7.14,4.27,12,4,3.26,8.34,6.91,12.37,10.16,1.6-1.5-2-6.11-4.86-10.26C40.47,340.66,39.57,333,39,330c.47-1.24,1.75-1.85,3-4,.63,3.2-.05,4.06.78,7.34-.73,3-3.11,8.39-.26,9.76,1.47-3.52,3.73-7.75,4.22-11.91.09-3.76.84-4.95.87-9.58-.31-2.88-2.81-9.54-2.94-14.15a20.84,20.84,0,0,1,.09-3C47.93,283.06,54.9,259.32,60,236.73c.15-15.43.38-33.17.49-48.83a183.56,183.56,0,0,0-4.29-18.66c4.35,12.78,11,59.33,10.94,68.43,0,10.29-17.3,35.81-16.75,70.39.08,5.09,3.15,21.94,6.81,39.55,4.29,20.59,10.64,42.1,10.64,47.14,0,10.45-5.09,22.33-4.54,40.9,1,32.81,19.61,65.71,21.2,99.25-1,1.8-1.39,3.45-1,4.74a21.87,21.87,0,0,1,1.15,4.3,14.29,14.29,0,0,0-.89-3.47,1.39,1.39,0,0,0-1,1,2.68,2.68,0,0,0-2.69,1,1.33,1.33,0,0,0-.13,1.1c-1.14-1-4.15.94-3.64,2.22-1.23-.63-3.24,1.24-2.71,2.49,1.82,4.27,7.83,6.9,11,10.13,1.63,1.63,2.78,3.26,4.7,3.25,3.06,0,5.42.25,6.75-1.17,3.73-4,1.46-10,.59-17,2.14-5.49-.57-7.11-.51-10.24.21-11.18.47-27.24.55-38.41-.46-17.78,1.11-36.27,1.06-45.55-.12-8.49-3-28.29-3-33.86-.08-6.79,2.52-13.23,2.56-19.32.13-8.79,1.31-34.72,1.08-59.75a189.91,189.91,0,0,0-1.56-25.17,11.33,11.33,0,0,0,6.14,0,188.23,188.23,0,0,0-1.56,25.17c-.23,25,.95,51,1.08,59.75,0,6.09,2.64,12.53,2.56,19.32,0,5.57-2.86,25.37-3,33.86,0,9.28,1.52,27.77,1.06,45.55.08,11.17.34,27.23.55,38.41.06,3.13-2.66,4.75-.51,10.24-.87,7-3.15,13,.59,17,1.33,1.42,3.69,1.16,6.75,1.17,1.92,0,3.07-1.62,4.7-3.25,3.22-3.23,9.28-6,11.1-10.24.53-1.25-1.55-3-2.76-2.36.52-1.26-2.49-3.37-3.46-2.44.17-1-2.35-2.74-3.3-1.86-.16-.33-.47-.79-.81-.6a13.3,13.3,0,0,0-.73,3,24,24,0,0,1,1.15-4.3c.38-1.29,0-2.94-1-4.74,1.6-33.54,20.23-66.44,21.21-99.25.55-18.57-4.53-30.45-4.54-40.9,0-5,6.35-26.55,10.64-47.14,3.66-17.61,6.73-34.46,6.81-39.55.55-34.58-16.75-60.1-16.75-70.39-.08-9.1,6.59-55.65,10.88-68.27-1.87,6.39-3.09,12.58-4.2,18.33.16,15.44.31,33.57.46,49,5.11,22.59,12.08,46.33,15.33,67.75a20.84,20.84,0,0,1,.09,3c-.13,4.61-2.63,11.27-2.94,14.15,0,4.63.78,5.82.87,9.58.49,4.16,2.75,8.39,4.22,11.91,2.85-1.37.47-6.74-.26-9.76.83-3.28.15-4.14.78-7.34a32.79,32.79,0,0,0,2.69,3.71c-.25,2.24-1.24,10.93-1.82,13.54-2.87,4.15-6.46,8.76-4.86,10.26,4-3.25,8.33-6.9,12.37-10.16,1.93-4.88,2.33-7.13,4.27-12-1.55-7.68-4-17.12-5.6-24.8.07-1,1.58-2.29,1.48-3.26s-1.46-1.67-2-3.25c-1.54-15.66.88-31.29-.74-47.43-.91-9.05-5.45-18.77-5.89-26.23-1.36-23,.67-45.23-.18-69-.38-10.57-2.24-16.75-7.06-19.31-19.28-10.22-41.46-6.07-38.62-38.64Z"/></svg>