<svg id="Layer_1" data-name="Layer 1" xmlns="http://www.w3.org/2000/svg" viewBox="0 0 200 600"><defs><style>.cls-1{fill:#fcd0c2;fill-rule:evenodd;}.cls-2{fill:none;stroke:#fff;stroke-miterlimit:22.93;stroke-width:0.51px;}</style></defs><title>male right</title><path class="cls-1" d="M75.87,92.27c1,29.82-11.74,31-12.42,61.92-.7,31.59,7.52,46.06,8.7,84.11.08,30.34-20,62.44,3.88,89.62-5.51,36.24,2.28,59.34,2.06,89.6-.16,6.4-13.47,22.12-13.44,41.19,0,7.67,0,17.52,4.14,35.28,2.59,19.86,4.61,38.22,2.09,49-2,7.91-10.94,21.29-3,28.51,3.44,3.14,13.28-.06,20.09-.4,7.18-.1,20.76,1.78,27.95,1.79l18.41,0c1.94,0,4.33-1.57,3.61-3.53-1.18-3.22-6.75-2.87-12.76-4.06-11.93-5.61-29-12.69-32.15-18.55-4.5-13.22,11-63.33,11.52-103.32.29-2.57,2.06-6.89,5.82-13,1.56-2.65,2-4.84,3.15-8.62,1.19-4,.59-6.76,1.06-10.64,1.23-13.7,12.81-34.57,14-67.26a22.54,22.54,0,0,0,2.79-2.26c2-3.85,5.53-14.22,7-18.4-2.19-6.52-3.1-9.32-6.29-14.71-2.44-6.31-4.41-14.88-3.28-23.41,3.84-19.2,3.41-34.39,2.75-48.92,1.41-7.2,4.46-18.82,3.34-35.71,2.15-6.1,2.55-19.51,2.2-24.45-1.59-22.52-20.12-40.58-29-53.65-2.61-3.92-2.34-8.94-2-14.19.33-4.63.54-8.79,3.27-8.79a66.32,66.32,0,0,0,11.1.22c2.61-.31,2.17-2.11,1.89-4.7a8.53,8.53,0,0,1,0-2.73c.27-.79,1.48-.9,1.56-1.33.32-1.68-.18-2.08-.67-2.36a2.57,2.57,0,0,0,1.05-.93c.78-1-.87-3.17-.6-5.43.24-.93,5.15-.24,4.93-2.2-.46-4.08-4.2-5.24-5.22-14.67-.21-2.38.62-6.67.45-9.46a28.26,28.26,0,0,0-1.6-8.12A18.64,18.64,0,0,1,124,49.16c-.72-6-6.85-13.3-13.82-16.77,1.48.16,2.39.29,4,.47-6.32-2.64-13.82-5.45-21.44-3.9a28.14,28.14,0,0,1,3.81-1.82c-2.92.36-9.69,1.94-11.06,2,.89-.43,1.21-.71,3.51-1.75-3.08.55-6.5,1.22-9.14,2.65-3,.63-7,1.33-9.57,2.42,1.69,0,3.18-.3,4.7.39A30.25,30.25,0,0,0,64.6,36.63c2.54-.47,2.64.52,4.6.11-4.15,3-3.67,6.27-6.56,10.06.8-.3,1.77-.84,2.37-1-1.07,1.75-2.14,3.61-3.25,5.47,0,0,.93-.79,1.89-1.53-2,25.1,14.8,34.14,10.93,45.13a15,15,0,0,0,1.29-2.56Z"/><path class="cls-2" d="M72.67,176.06c-.36,8.57.23,14.47,2.22,21.15-3.53,20.32,1.51,25-.31,36.69.45,2.07,3.17,6.33,3.72,8.31,8.25,29.7,23.6,45.68,33.27,60.31.36.54-.36,3-.18,3.62.28.92,1.94.66,2.53,3,0,3.62-1.45,8.65,1.44,13.21,2.11,3.64,3.49,3.84,6.16,8.15-.32,4.09.33,6.6,0,10.12-2.42,2.07-5.23,7.86-3.5,10.53,3.34-3.42,9.93-6.23,13.26-9.65,1.93-4.26,5.32-13.39,7-18.4-2.75-8-5.52-14.36-13.27-25.88-8.59-19-7.8-37.95-21.82-61.29a217.91,217.91,0,0,0,2.91-38.85c4.15-7.34,5.86-18.5,4-29.32"/><path class="cls-2" d="M59.49,174.83c-2.08,11.53.43,19,3,28.82a65.16,65.16,0,0,1,2.1,15.5"/><path class="cls-2" d="M152.92,174.83c2.09,11.53-.43,19-3,28.82A63,63,0,0,0,147.69,219"/></svg>