<svg id="Layer_1" data-name="Layer 1" xmlns="http://www.w3.org/2000/svg" viewBox="0 0 200 600"><defs><style>.cls-1{fill:none;stroke:#fff;stroke-miterlimit:22.93;stroke-width:0.51px;}.cls-2{fill:#fcd0c2;fill-rule:evenodd;}</style></defs><title>male back</title><path class="cls-1" d="M59.49,174.83c-2.08,11.53.43,19,3,28.82a65.16,65.16,0,0,1,2.1,15.5"/><path class="cls-1" d="M152.92,174.83c2.09,11.53-.43,19-3,28.82A63,63,0,0,0,147.69,219"/><path class="cls-2" d="M116.38,89.81c0,1,.1,2,.18,3,0,8.2,1,18.32,2,22.77,1.73,7.63,36.21,15.4,44.19,24.85,10.15,12,7.9,33.58,2.29,54,.39,20.09,1.05,32.67,1.93,39.68.76,3.24,4.13,15.05,4.3,25.87.2,13.27-1.63,25.5-1.88,38.62,2,2.75,1.33,4.26.07,6.38,2.48,7.6,3.46,16.34,4.66,23.47a34.49,34.49,0,0,1-7.38,14.47c-6.59,2.79-8.75,5.3-15.35,8.09-1-4,2.34-6.23,6.3-9.75A33.64,33.64,0,0,0,161.2,331c-.4-1-1.86-2.75-2.24-3.75-.58-1-2,3.37-2.23,6.77,1.7,7.08-.83,8.38-1.09,7.69-1.8-2.3-2.66-5.77-3.81-9.71-.4-4-.26-7.53-.29-9.34.76-5.69,3.84-11.08,4.66-19.61-.18-14.67-5.82-25.37-8.21-43.64-.79-6.09.51-12.88-.29-19-1.55-8.45-4.15-16.21-5.7-24.67-.23,25.22.07,32.07-.39,43.09-.31,14.68,3.53,29.6,5,44,1.88,18,2.69,35.44,1,53.75-1.56,17-5.6,37.07-8.23,52.44,0,0,.2,11.95-.27,20.48,1.41,9.26,4.14,17.06,4.35,24.77.67,25.35-12.74,55.51-19.12,85-1,4.67,3.28,5.71.17,11a12.6,12.6,0,0,0,1.07-2.68c.38-.74,1.75.17,1.4,1.57,1.58-1.08,5,1,4.31,2.59,1.66-1,4.56,1.31,3.77,3.06a2,2,0,0,1,2.8.45c2.51,2.74-4,7.47-12.5,11.24-1.86.83-4.11,3.24-5.71,4.23-2.7,1.66-10.67,1.51-12.84-2.38-1.74-4.89.7-11.88.67-17.56,0-1.24-1.23-1.26-1.11-4.19s1.6-3.85,1.81-5.86a285.52,285.52,0,0,0,.9-47.54c-1.28-9-3.85-18.83-1.59-39.2,1-9,2.35-8.73,2.41-21.29-.28-3.83-3.92-12.56-2.72-27.63-1.43-15.55-6.33-32-6.56-79.27a1.4,1.4,0,0,0-1.32,0c-.23,47.28-5.13,63.74-6.56,79.29,1.2,15.07-2.44,23.8-2.72,27.63.06,12.56,1.4,12.27,2.41,21.29,2.26,20.37-.31,30.17-1.59,39.2a285.52,285.52,0,0,0,.9,47.54c.21,2,1.73,3,1.81,5.86s-1.1,3-1.11,4.19c0,5.68,2.41,12.67.67,17.56-2.17,3.89-10.14,4-12.84,2.38-1.6-1-3.85-3.4-5.71-4.23-8.47-3.77-15-8.5-12.5-11.24a2,2,0,0,1,2.8-.45c-.79-1.75,2.11-4.09,3.77-3.06-.68-1.58,2.73-3.67,4.31-2.59-.35-1.4,1-2.31,1.4-1.57a12.6,12.6,0,0,0,1.07,2.68c-3.11-5.27,1.19-6.31.17-11-6.38-29.45-19.79-59.61-19.12-85,.21-7.71,3-15.51,4.35-24.77-.47-8.53-.27-20.48-.27-20.48-2.63-15.37-6.67-35.4-8.23-52.44-1.68-18.31-.87-35.78,1-53.75,1.5-14.43,5.34-29.35,5-44-.46-11-.16-17.87-.39-43.09-1.55,8.46-4.15,16.22-5.7,24.67-.8,6.09.5,12.88-.29,19-2.39,18.27-8,29-8.21,43.64.82,8.53,3.9,13.92,4.66,19.61,0,1.81.11,5.3-.29,9.34-1.15,3.94-2,7.41-3.81,9.71-.26.69-2.79-.61-1.09-7.69-.23-3.4-1.65-7.76-2.23-6.77-.38,1-1.84,2.71-2.24,3.75a33.64,33.64,0,0,0,3.51,10.19c4,3.52,7.3,5.74,6.3,9.75-6.6-2.79-8.76-5.3-15.35-8.09a34.49,34.49,0,0,1-7.38-14.47c1.2-7.13,2.18-15.87,4.66-23.47-1.26-2.12-2-3.63.07-6.38-.25-13.12-2.08-25.35-1.88-38.62.17-10.82,3.54-22.63,4.3-25.87.88-7,1.54-19.59,1.93-39.68-5.61-20.43-7.86-42,2.29-54,8-9.45,42.46-17.22,44.19-24.85,1-4.45,2-14.57,2-22.77.06-.82.14-1.61.22-2.38C82.19,91.71,80,93.73,79,94.54c2.65-5.5.18-11.19-2.26-21.75-2.36-10.18-4-15.43-2.56-25.9-1,.75-1.9,1.54-1.9,1.54,1.11-1.87,2.18-3.72,3.25-5.48-.59.2-1.56.75-2.37,1C76.09,40.2,81,33.31,85,32.47l-5.88,1.25c3.41-1,6.48-2.49,10.24-3-1.51-.7-3-.61-4.49-1.3,7.77.57,15.72-3.43,22.9.85,10.19.79,11,8,16.56,10.8a11.2,11.2,0,0,1-2.93-1c1.4,1.72,2.54,4,4.2,5.15l-2.41-1c3.91,11.48.45,19.63-1.18,29-.5,2.88-4.39,13.21-1.73,19.37-1.13-1-3-1.73-3.92-2.84Z"/><path class="cls-1" d="M52.86,172.32c-2.09,11.54.43,19,3,28.82A69.87,69.87,0,0,1,58,217.23"/><path class="cls-1" d="M147.1,172.32c2.09,11.54-.42,19-3,28.82A73.42,73.42,0,0,0,142,217.73"/></svg>