<svg id="Layer_1" data-name="Layer 1" xmlns="http://www.w3.org/2000/svg" viewBox="0 0 200 600"><defs><style>.cls-1{fill:#fcd0c2;fill-rule:evenodd;}.cls-2{fill:none;stroke:#fff;stroke-miterlimit:22.93;stroke-width:0.51px;}</style></defs><title>male front</title><path class="cls-1" d="M116.23,92.25c1.25-1.34,2.43-2.58,3.71-4,.34-2.07.69-4.13,1-6.29,2-.48,6.8-17.38,2.94-18.21A70,70,0,0,0,123.61,44L126,45c-1.66-1.2-2.8-3.44-4.2-5.16a10.81,10.81,0,0,0,2.92,1c-5.51-2.78-6.36-10-16.55-10.8-7.19-4.29-15.13-.28-22.91-.85,1.52.69,3,.6,4.5,1.29-3.77.54-6.83,2-10.25,3l5.88-1.24c-4,.84-8.93,7.73-11.82,11.52.8-.3,1.77-.84,2.37-1-1.07,1.75-2.14,3.61-3.25,5.47,0,0,.93-.79,1.89-1.53-.41,3,.55,10.48,1.56,17.46-4.24,0,.62,16.12,2.72,18,.28,2.18.64,4.29,1,6.41a51.67,51.67,0,0,0,4,4.06,154.69,154.69,0,0,1-2.41,24.8c-1.08,4.73-17.79,12.07-22.34,13.5-3.49.94-16.57,3.51-21.45,9.28-10.15,12-7.9,33.58-2.29,54-.39,20.09-1,32.67-1.93,39.68-.76,3.24-4.13,15-4.3,25.87C29,273,30.83,285.18,31.08,298.3c-2,2.75-1.33,4.26-.07,6.38-2.48,7.61-3.46,16.34-4.67,23.48a34.62,34.62,0,0,0,7.39,14.46c6.59,2.79,8.75,5.3,15.34,8.09,1-2.44-1.38-6.46-2.94-9.95,3.17-2.42,2.2-9.8,2.86-16.94-.12-5.74-3.9-12.47-4.72-21,.18-14.66,5.82-25.37,8.21-43.64.79-6.09-.51-12.87.29-19,1.55-8.46,4.15-16.22,5.7-24.67.23,25.21-.07,32.07.39,43.08.31,14.69-3.53,29.6-5,44-1.88,18-2.69,35.45-1,53.76,1.56,17,5.6,37.06,8.23,52.43,0,0-.2,11.95.27,20.49-1.41,9.26-4.14,17.06-4.35,24.77-.67,25.35,12.74,55.51,19.12,85a9.1,9.1,0,0,1,.07,4.57c-2.16,5.25-1.81,3.32-.24,6.41-3.1,6.28-10.18,12.26-13.93,14.4a2.81,2.81,0,0,0-1.43,3.15c.5.95,1,2.12,3.38,1.12-.45,1.31.51,1.48,1.94,1.74a6.89,6.89,0,0,0,4.18-.38c-.24,1.18,1,1.36,2.64,1.48s3.56,0,4.16-.68c.31,1,1.58,1.09,3.24,1.07,1.88,0,3.46.27,3.87-1,.31,2.1,10.17.88,9.65-3.54,0-1.37-.73-3.4-.73-7.48,0-5.24.08-9.12.07-14.78A269.58,269.58,0,0,1,91.35,493c1.28-9,3.85-18.84,1.59-39.2-1-9-2.35-8.74-2.42-21.3.29-3.83,3.93-12.56,2.72-27.62,1.4-15.15,6.08-32.92,6.55-77.51a9,9,0,0,1,1,0c1.85,44.63,4.63,63.6,6.39,77.86-1.32,15.29,2.33,22.74,2.72,27-.07,12.56-.93,12.29-1.94,21.31-2.26,20.37.31,30.17,1.59,39.2.83,9.92.49,30.55-2.31,52.35,0,5.66.07,9.54.06,14.78,0,4.08-.7,6.11-.73,7.48-.52,4.42,9.63,5.66,9.65,3.54.42,1.09,2.43,1.15,4.33,1.09,1.48,0,3.18-.41,3.19-1.15.49.61,2.27.94,3.92.76,1.29-.14,2.69-.65,2.27-1.44a5.61,5.61,0,0,0,3.76.42c1.43-.28,2.88-1,2.33-1.84,2.05,1.25,3.11-.2,3.61-1.15a2.8,2.8,0,0,0-1.42-3.15c-3.76-2.14-10.84-8.12-13.94-14.4,1.57-3.09,1.92-1.16-.23-6.41a8.87,8.87,0,0,1,.06-4.57c7.3-32.22,20.14-60.3,18.72-85.53-.42-7.5-2.28-13.88-4-24.2.5-10.06.33-16.29.29-20.12,2.63-15.37,6.53-35.65,8.1-52.69,1.7-18.57.69-36.39-1.21-54.6-1.48-14.17-5.26-28.84-5-43.3.46-11,.16-17.87.39-43.08,1.55,8.45,4.15,16.21,5.7,24.67.8,6.09-.5,12.87.29,19,2.39,18.27,8,29,8.21,43.64-.82,8.53-4.6,15.26-4.72,21,.66,7.14-.66,13.65,2.86,16.94-1.56,3.49-4,7.51-2.94,9.95,6.59-2.79,8.75-5.3,15.34-8.09a34.62,34.62,0,0,0,7.39-14.46c-1.21-7.14-2.19-15.87-4.67-23.48,1.49-2.28,2-3.61,0-6.42.26-11.71,2.07-24.33,1.85-38.57-.17-10.83-3.54-22.63-4.3-25.87-.88-7-1.54-19.59-1.93-39.68,5.61-20.44,7.86-42-2.29-54-4.88-5.77-18-8.34-21.45-9.28-4.55-1.43-20.91-9-22-13.73a134.46,134.46,0,0,1-2.61-24.86Z"/><path class="cls-2" d="M59.49,174.83c-2.08,11.53.43,19,3,28.82a65.16,65.16,0,0,1,2.1,15.5"/><path class="cls-2" d="M152.92,174.83c2.09,11.53-.43,19-3,28.82A63,63,0,0,0,147.69,219"/></svg>