<svg id="Layer_1" data-name="Layer 1" xmlns="http://www.w3.org/2000/svg" viewBox="0 0 200 600"><defs><style>.cls-1{fill:none;stroke:#fff;stroke-miterlimit:22.93;stroke-width:0.51px;}.cls-2{fill:#fcd0c2;fill-rule:evenodd;}</style></defs><title>female right</title><path class="cls-1" d="M59.49,174.83c-2.08,11.53.43,19,3,28.82a65.16,65.16,0,0,1,2.1,15.5"/><path class="cls-1" d="M152.92,174.83c2.09,11.53-.43,19-3,28.82A63,63,0,0,0,147.69,219"/><path class="cls-2" d="M102.09,105.94c.49-2.14.72-4.36,2.27-4.24,4.86.38,12.45,3.08,14.47,2.27a3.22,3.22,0,0,0,2-2.47c.4-1.35.19-3,.58-3.55a1.86,1.86,0,0,0,2.53-1.63c.14-.61-.14-1.17-1.48-1.67,4.76-.1.92-3.57,1.8-6.89.24-1.5,5.16-.87,5.31-2.28-1.46-3.06-5.78-8.12-5.82-13.44a28.36,28.36,0,0,0-1.77-15.84c-.53-15.45-19-19-31.45-17.89C82.59,39,70.3,41,68.47,57.62c-2.44,14.29,12.69,47.3-6.88,52.7,7.73-1,13.06-11.25,13-18.53,1,6.72.44,13.1-4.35,18.85C79,105.09,80.2,90.27,80.55,92c3.53,17.33-12.64,45.07-12.67,71.54s11.37,36.58,12.55,74.62c0,9.64-12.65,29-12.66,48.5,0,11.56,2,21,11.8,33.27-.46,8.94-.94,18.77-.63,28.21.24,7.58,1.24,14.87,1.3,21.56.1,11.69.29,21.22.26,25.72-.16,7.56-12.84,27.45-12.86,41.87,0,17.54,11,78.66,6.48,97.77-2.15,13.19-11.31,18.17-3.41,25.39,3.44,3.15,13.29-.05,20.09-.4,7.18-.1,16.23,1.79,23.42,1.8l18.41,0c1.94,0,4.32-1.56,3.61-3.52-1.18-3.22-6.64-.37-12.76-2.21-11.94-5.61-30.58-11.26-31.58-20.64-.3-11.82,5-51.2,10.35-83.66,2.69-16.42-.09-32.47,3.27-39.45,2.4-5.62,5.1-11.48,5.94-16.85,2.38-15.26,9.11-31.4,11-46.66,1.75-14.05,2.71-27.41,1.33-42.68.47-16.58,6.78-31.87,7-42.75.16-9.45-1.67-17.11-2.39-26.5-.87-11.33-1.75-24.68-.63-38.31,20.2-16.59,7.42-28.24-3.21-39.92-13.47-14.82-27.79-29.31-22.44-52.73Z"/><path class="cls-1" d="M79.33,167.52c2,6.65,1.22,19.81,1.06,33.19-.18,15.16.82,30.52,0,35.23,2.8,6.43,3.3,17.29,7,28.27,4,11.86,10.41,22.74,14.45,35.24.2.62-.36,3-.18,3.62.28.92,1.94.66,2.53,3,.7,5.61-.1,11.79,1.74,16.58,1.77,2.71,4.6,5.53,7.28,9.83-1,3.7-1.07,7.42-1.4,10.94-2.42,2.06-5.11,6.89-3.38,9.57,3.34-3.43,6.67-6.09,10-9.51A127.24,127.24,0,0,0,124.22,330a108.55,108.55,0,0,0-10.35-23.07c-2.8-14.49-5.64-27.7-8.47-41.1-2.06-9.79-4.13-19.68-6.17-30.25,1.55-21.41,5.43-46.31,7-67.72"/></svg>